<svg width="33" height="32" viewBox="0 0 33 32" fill="none" xmlns="http://www.w3.org/2000/svg">
<g clip-path="url(#clip0_116_1574)">
<path d="M16.2501 0C7.41466 0 0.25 7.16334 0.25 16.0001C0.25 23.0694 4.83452 29.0669 11.1919 31.1826C11.9915 31.3307 12.2851 30.8355 12.2851 30.4129C12.2851 30.0314 12.2702 28.771 12.2633 27.434C7.81209 28.4019 6.87283 25.5462 6.87283 25.5462C6.14499 23.6968 5.0963 23.2051 5.0963 23.2051C3.64461 22.212 5.20573 22.2324 5.20573 22.2324C6.81242 22.3453 7.65842 23.8812 7.65842 23.8812C9.08547 26.3273 11.4014 25.6201 12.3145 25.2113C12.4581 24.1772 12.8727 23.4713 13.3303 23.0718C9.77647 22.6672 6.0406 21.2953 6.0406 15.1645C6.0406 13.4176 6.66563 11.9903 7.68916 10.8698C7.52303 10.4668 6.97537 8.83944 7.84415 6.63554C7.84415 6.63554 9.18774 6.20552 12.2453 8.27562C13.5216 7.92111 14.8904 7.74332 16.2501 7.73723C17.6099 7.74332 18.9797 7.92111 20.2584 8.27562C23.3123 6.20552 24.654 6.63554 24.654 6.63554C25.5249 8.83944 24.977 10.4668 24.8108 10.8698C25.8368 11.9903 26.4575 13.4176 26.4575 15.1645C26.4575 21.3098 22.7145 22.663 19.1517 23.0591C19.7256 23.5556 20.2369 24.5293 20.2369 26.0221C20.2369 28.1629 20.2184 29.8859 20.2184 30.4129C20.2184 30.8387 20.5064 31.3376 21.3174 31.1805C27.6713 29.0624 32.25 23.067 32.25 16.0001C32.25 7.16334 25.0864 0 16.2501 0ZM6.24257 22.7925C6.20733 22.872 6.08227 22.8959 5.96834 22.8413C5.85229 22.7891 5.78711 22.6807 5.82474 22.601C5.85918 22.5191 5.9845 22.4963 6.10029 22.5511C6.2166 22.6033 6.28284 22.7128 6.24257 22.7925ZM7.0296 23.4948C6.95329 23.5655 6.80412 23.5327 6.70291 23.4209C6.59825 23.3093 6.57864 23.1601 6.65601 23.0883C6.7347 23.0176 6.87937 23.0507 6.98429 23.1623C7.08895 23.2751 7.10935 23.4232 7.0296 23.4948ZM7.56953 24.3933C7.4715 24.4614 7.3112 24.3975 7.21211 24.2552C7.11407 24.113 7.11407 23.9423 7.21422 23.874C7.31358 23.8056 7.4715 23.8671 7.57191 24.0083C7.66968 24.153 7.66968 24.3236 7.56953 24.3933ZM8.48267 25.4339C8.39497 25.5306 8.20818 25.5046 8.07146 25.3727C7.93156 25.2437 7.89261 25.0606 7.98058 24.9639C8.06934 24.8669 8.25719 24.8942 8.39497 25.0251C8.53381 25.1538 8.5762 25.3382 8.48267 25.4339ZM9.66281 25.7852C9.62413 25.9105 9.44423 25.9675 9.263 25.9142C9.08203 25.8594 8.9636 25.7126 9.00016 25.5859C9.03778 25.4598 9.21848 25.4005 9.40104 25.4574C9.58174 25.512 9.70044 25.6577 9.66281 25.7852ZM11.0059 25.9342C11.0104 26.0662 10.8567 26.1756 10.6665 26.178C10.4752 26.1822 10.3204 26.0754 10.3183 25.9456C10.3183 25.8123 10.4685 25.704 10.6598 25.7008C10.8501 25.6971 11.0059 25.803 11.0059 25.9342ZM12.3253 25.8836C12.3481 26.0124 12.2158 26.1446 12.0269 26.1798C11.8412 26.2138 11.6692 26.1343 11.6457 26.0066C11.6226 25.8746 11.7572 25.7424 11.9427 25.7082C12.1319 25.6754 12.3012 25.7527 12.3253 25.8836Z" fill="white"/>
</g>
<defs>
<clipPath id="clip0_116_1574">
<rect width="32" height="31.25" fill="white" transform="translate(0.25)"/>
</clipPath>
</defs>
</svg>
