<svg width="33" height="32" viewBox="0 0 33 32" fill="none" xmlns="http://www.w3.org/2000/svg">
<path d="M24.4374 7.06049L16.3372 13.382L8.05176 7.06049V7.0622L8.06177 7.07075V15.9226L16.2437 22.3808L24.4374 16.172V7.06049Z" fill="#EA4335"/>
<path d="M26.5643 5.52276L24.437 7.06042V16.1719L31.1307 11.0327V7.93689C31.1307 7.93689 30.3182 3.51525 26.5643 5.52276Z" fill="#FBBC05"/>
<path d="M24.437 16.172V27.9898H29.5674C29.5674 27.9898 31.0273 27.8395 31.1324 26.1754V11.0328L24.437 16.172Z" fill="#34A853"/>
<path d="M8.06215 28V15.9225L8.05176 15.9139L8.06215 28Z" fill="#C5221F"/>
<path d="M8.05138 7.06237L5.93582 5.53325C2.18187 3.52575 1.36768 7.94568 1.36768 7.94568V11.0415L8.05138 15.9142V7.06237Z" fill="#C5221F"/>
<path d="M8.05176 7.06197V15.9138L8.06215 15.9223V7.07051L8.05176 7.06197Z" fill="#C5221F"/>
<path d="M1.36768 11.0429V26.1854C1.47112 27.8512 2.93266 27.9999 2.93266 27.9999H8.06306L8.05138 15.9139L1.36768 11.0429Z" fill="#4285F4"/>
</svg>
