<svg width="72" height="72" viewBox="0 0 72 72" fill="none" xmlns="http://www.w3.org/2000/svg">
<rect x="4.5" y="4.5" width="63" height="63" fill="#FFCA28"/>
<path d="M42.75 56.8972L47.3885 53.8279C47.7519 54.97 50.0538 57.6823 52.9615 57.6823C55.8692 57.6823 57.2192 56.0942 57.2192 55.0414C57.2192 52.1722 54.2501 51.1606 52.8241 50.6747C52.5916 50.5955 52.4001 50.5302 52.2692 50.4732C52.2021 50.444 52.1006 50.4052 51.9702 50.3554C50.3842 49.7494 44.5327 47.5138 44.5327 41.0335C44.5327 33.8958 51.4212 33.075 52.9788 33.075C53.998 33.075 58.8981 33.1999 61.3385 37.7859L56.8385 40.9265C55.8519 38.9279 54.2128 38.2677 53.2038 38.2677C50.7115 38.2677 50.1923 40.0948 50.1923 40.9265C50.1923 43.2602 52.9001 44.3062 55.1865 45.1894C55.7847 45.4205 56.354 45.6404 56.8385 45.8693C59.3308 47.0471 63 48.9743 63 55.0414C63 58.0802 60.4512 63 54.0346 63C45.4154 63 43.1308 57.8251 42.75 56.8972Z" fill="#3E3E3E"/>
<path d="M20.25 57.5067L25.0845 54.439C25.4633 55.5805 26.9353 57.685 29.0712 57.685C31.207 57.685 32.3002 55.4913 32.3002 54.439V33.75H38.2459V54.439C38.3422 57.2926 36.7595 63 29.7747 63C23.3527 63 20.6829 59.1832 20.25 57.5067Z" fill="#3E3E3E"/>
</svg>
