<svg width="33" height="32" viewBox="0 0 33 32" fill="none" xmlns="http://www.w3.org/2000/svg">
<rect x="2.25" y="2" width="28" height="28" rx="14" fill="#1275B1"/>
<path d="M12.8686 9.69215C12.8686 10.6267 12.0585 11.3843 11.0593 11.3843C10.06 11.3843 9.25 10.6267 9.25 9.69215C9.25 8.7576 10.06 8 11.0593 8C12.0585 8 12.8686 8.7576 12.8686 9.69215Z" fill="white"/>
<path d="M9.49742 12.6281H12.5902V22H9.49742V12.6281Z" fill="white"/>
<path d="M17.5696 12.6281H14.4768V22H17.5696C17.5696 22 17.5696 19.0496 17.5696 17.2049C17.5696 16.0976 17.9477 14.9855 19.4562 14.9855C21.161 14.9855 21.1508 16.4345 21.1428 17.5571C21.1324 19.0244 21.1572 20.5219 21.1572 22H24.25V17.0537C24.2238 13.8954 23.4008 12.4401 20.6933 12.4401C19.0854 12.4401 18.0887 13.1701 17.5696 13.8305V12.6281Z" fill="white"/>
</svg>
