<svg width="72" height="72" viewBox="0 0 72 72" fill="none" xmlns="http://www.w3.org/2000/svg">
<path d="M42.0275 35.9458C42.0275 32.7183 39.3291 30.1017 36 30.1017C32.6712 30.1017 29.9725 32.7183 29.9725 35.9458C29.9725 39.1735 32.6712 41.7902 36 41.7902C39.3291 41.7902 42.0275 39.1735 42.0275 35.9458Z" fill="#53C1DE"/>
<path fill-rule="evenodd" clip-rule="evenodd" d="M55.5758 25.0958C56.8488 20.0808 58.4488 10.7808 52.8084 7.62786C47.1945 4.48863 39.889 10.504 36.0314 14.1147C32.185 10.5399 24.6743 4.55032 19.0387 7.71331C13.4269 10.8631 15.1574 20.0088 16.4585 25.0553C11.2237 26.4969 2.25 29.6019 2.25 35.9458C2.25 42.2717 11.2144 45.6498 16.4182 47.09C15.1123 52.1645 13.4684 61.1796 19.0874 64.3222C24.7439 67.4846 32.2313 61.6376 36.1246 57.9875C40.0069 61.6194 47.2424 67.5047 52.8574 64.3532C58.4902 61.1917 57.023 52.0164 55.7219 46.9406C60.7663 45.4972 69.75 42.1927 69.75 35.9458C69.75 29.6628 60.7282 26.5326 55.5758 25.0958ZM54.9365 44.2507C54.0822 41.6285 52.9291 38.8402 51.5185 35.9597C52.8648 33.1473 53.9731 30.3948 54.8036 27.7895C58.5807 28.8512 66.8666 31.2779 66.8666 35.9458C66.8666 40.6574 58.9154 43.1071 54.9365 44.2507ZM51.4124 61.9335C47.2231 64.2847 40.9998 58.6567 38.1326 55.982C40.0347 53.9649 41.9355 51.62 43.7906 49.0161C47.0539 48.7355 50.1368 48.2764 52.9327 47.6499C53.8484 51.2402 55.6205 59.5716 51.4124 61.9335ZM20.5281 61.8999C16.3382 59.5575 18.2533 51.5129 19.214 47.775C21.9788 48.3679 25.0393 48.7946 28.3104 49.0518C30.1777 51.5997 32.1335 53.9418 34.1046 55.9927C31.6693 58.2767 24.7377 64.2533 20.5281 61.8999ZM5.13335 35.9458C5.13335 31.2164 13.3696 28.8075 17.2328 27.7484C18.0777 30.4122 19.1856 33.1974 20.5228 36.0139C19.1683 38.8723 18.0445 41.7018 17.1919 44.3969C13.5083 43.3747 5.13335 40.6781 5.13335 35.9458ZM20.4833 10.133C24.6904 7.77187 31.2181 13.5221 34.0107 16.1103C32.0499 18.152 30.112 20.4763 28.2608 23.0095C25.0862 23.2948 22.0472 23.7531 19.2535 24.3668C18.2053 20.2966 16.2808 12.4915 20.4833 10.133ZM45.8533 26.0485C48.0072 26.312 50.0705 26.6625 52.0081 27.0915C51.4265 28.8991 50.7014 30.7893 49.8477 32.727C48.6099 30.4499 47.2812 28.2186 45.8533 26.0485ZM36.0323 18.1082C37.3622 19.5052 38.6943 21.0652 40.0045 22.7576C37.3467 22.6358 34.6844 22.6352 32.0266 22.7558C33.338 21.0791 34.6814 19.5214 36.0323 18.1082ZM22.1771 32.725C21.3374 30.7939 20.619 28.8953 20.0322 27.0619C21.9582 26.644 24.0119 26.3025 26.1517 26.0432C24.7199 28.2086 23.3935 30.4391 22.1771 32.725ZM26.2133 46.0479C24.0027 45.8086 21.9178 45.4845 19.9925 45.0782C20.5885 43.2123 21.3228 41.2729 22.1804 39.3004C23.4136 41.6099 24.7601 43.862 26.2133 46.0479ZM36.112 53.9809C34.7453 52.5509 33.3822 50.9695 32.0508 49.2684C34.7239 49.3703 37.4021 49.3705 40.0747 49.2548C38.7603 50.9869 37.433 52.5706 36.112 53.9809ZM49.8751 39.1999C50.7773 41.1938 51.5379 43.1228 52.1419 44.9571C50.1846 45.3901 48.0717 45.7388 45.8453 45.9978C47.2838 43.7866 48.6334 41.5206 49.8751 39.1999ZM42.1813 46.3367C38.0928 46.6199 33.9785 46.6169 29.8886 46.3598C27.5645 43.0683 25.4957 39.6067 23.7099 36.013C25.487 32.4267 27.5408 28.972 29.8539 25.6855C33.947 25.3855 38.0651 25.3848 42.158 25.6873C44.4511 28.9735 46.5019 32.4193 48.3203 35.9733C46.5234 39.5578 44.4589 43.0195 42.1813 46.3367ZM51.3682 10.0498C55.5763 12.4032 53.7032 20.7613 52.7839 24.3958C49.9836 23.7693 46.9425 23.3029 43.7586 23.0133C41.9038 20.4526 39.9821 18.1242 38.0529 16.1088C40.8814 13.4649 47.2007 7.7195 51.3682 10.0498Z" fill="#53C1DE"/>
</svg>
