<svg width="72" height="43" viewBox="0 0 72 43" fill="none" xmlns="http://www.w3.org/2000/svg">
<path fill-rule="evenodd" clip-rule="evenodd" d="M35.9738 0C26.3913 0 20.4218 4.76893 18.0131 14.3068C21.6262 9.53785 25.8153 7.75606 30.6327 8.90898C33.3556 9.59026 35.3455 11.5817 37.4924 13.7303C41.0007 17.3463 45.0851 21.4864 53.9869 21.4864C63.5695 21.4864 69.5913 16.7174 72 7.17959C68.3869 11.9485 64.1978 13.7303 59.4327 12.525C56.7098 11.8437 54.72 9.85229 52.5731 7.70365C49.0124 4.14006 44.928 0 35.9738 0ZM18.0131 21.4864C8.37818 21.4864 2.40873 26.2553 0 35.7932C3.61309 31.0242 7.80218 29.2424 12.6196 30.3954C15.3425 31.0766 17.3324 33.0681 19.4793 35.2167C22.9876 38.8327 27.072 42.9727 35.9738 42.9727C45.5564 42.9727 51.5782 38.2038 53.9869 28.666C50.3738 33.4349 46.1847 35.2167 41.3673 34.0114C38.6444 33.3301 36.6545 31.3387 34.5076 29.19C30.9993 25.6264 26.9149 21.4864 18.0131 21.4864Z" fill="#38BDF8"/>
</svg>
