<svg width="33" height="32" viewBox="0 0 33 32" fill="none" xmlns="http://www.w3.org/2000/svg">
<path fill-rule="evenodd" clip-rule="evenodd" d="M16.25 31C23.982 31 30.25 24.732 30.25 17C30.25 9.26801 23.982 3 16.25 3C8.51801 3 2.25 9.26801 2.25 17C2.25 19.5109 2.911 21.8674 4.06847 23.905L2.25 31L9.56486 29.3038C11.5514 30.3854 13.8289 31 16.25 31ZM16.25 28.8462C22.7925 28.8462 28.0962 23.5425 28.0962 17C28.0962 10.4576 22.7925 5.15385 16.25 5.15385C9.70755 5.15385 4.40385 10.4576 4.40385 17C4.40385 19.5261 5.1945 21.8675 6.54184 23.7902L5.48077 27.7692L9.52993 26.7569C11.4394 28.0746 13.7546 28.8462 16.25 28.8462Z" fill="#BFC8D0"/>
<path d="M28.25 16C28.25 22.6274 22.8774 28 16.25 28C13.7222 28 11.3769 27.2184 9.44266 25.8837L5.34091 26.9091L6.41576 22.8784C5.05092 20.9307 4.25 18.5589 4.25 16C4.25 9.37258 9.62258 4 16.25 4C22.8774 4 28.25 9.37258 28.25 16Z" fill="url(#paint0_linear_116_1588)"/>
<path fill-rule="evenodd" clip-rule="evenodd" d="M16.25 30C23.982 30 30.25 23.732 30.25 16C30.25 8.26801 23.982 2 16.25 2C8.51801 2 2.25 8.26801 2.25 16C2.25 18.5109 2.911 20.8674 4.06847 22.905L2.25 30L9.56486 28.3038C11.5514 29.3854 13.8289 30 16.25 30ZM16.25 27.8462C22.7925 27.8462 28.0962 22.5425 28.0962 16C28.0962 9.45755 22.7925 4.15385 16.25 4.15385C9.70755 4.15385 4.40385 9.45755 4.40385 16C4.40385 18.5261 5.1945 20.8675 6.54184 22.7902L5.48077 26.7692L9.52993 25.7569C11.4394 27.0746 13.7546 27.8462 16.25 27.8462Z" fill="white"/>
<path d="M12.75 9.50001C12.4172 8.83143 11.9065 8.89062 11.3907 8.89062C10.4688 8.89062 9.03125 9.9949 9.03125 12.0501C9.03125 13.7344 9.77345 15.5782 12.2744 18.3362C14.688 20.998 17.8594 22.3749 20.4922 22.3281C23.125 22.2812 23.6667 20.0156 23.6667 19.2504C23.6667 18.9113 23.4562 18.7421 23.3113 18.6961C22.4141 18.2656 20.7593 17.4633 20.3828 17.3125C20.0063 17.1618 19.8097 17.3657 19.6875 17.4766C19.3461 17.802 18.6693 18.7609 18.4375 18.9766C18.2058 19.1923 17.8603 19.0831 17.7165 19.0016C17.1874 18.7893 15.7529 18.1512 14.6095 17.0427C13.1953 15.6719 13.1123 15.2003 12.8459 14.7804C12.6328 14.4446 12.7892 14.2385 12.8672 14.1484C13.1719 13.7969 13.5926 13.2541 13.7813 12.9844C13.9699 12.7147 13.8202 12.3051 13.7303 12.0501C13.3438 10.9531 13.0163 10.0349 12.75 9.50001Z" fill="white"/>
<defs>
<linearGradient id="paint0_linear_116_1588" x1="26.75" y1="7" x2="4.25" y2="28" gradientUnits="userSpaceOnUse">
<stop stop-color="#5BD066"/>
<stop offset="1" stop-color="#27B43E"/>
</linearGradient>
</defs>
</svg>
