<svg width="72" height="72" viewBox="0 0 72 72" fill="none" xmlns="http://www.w3.org/2000/svg">
<circle cx="35" cy="35" r="30.625" fill="#028CB0"/>
<path d="M14.5246 36.0005C14.5246 44.5107 19.4746 51.8405 26.6331 55.3245L16.3904 27.2618C15.1605 30.011 14.5247 32.9888 14.5246 36.0005ZM36 57.4759C38.494 57.4759 40.8929 57.038 43.1394 56.2574L42.9871 55.9718L36.3808 37.8853L29.9458 56.6001C31.8496 57.1713 33.8867 57.4759 36 57.4759ZM38.951 25.9291L46.7187 49.0228L48.87 41.8643C49.7839 38.8943 50.4883 36.762 50.4883 34.9153C50.4883 32.2499 49.5364 30.4222 48.7367 29.0134C47.6325 27.2238 46.6235 25.7197 46.6235 23.9682C46.6235 21.9882 48.1085 20.1605 50.2408 20.1605H50.5073C46.5502 16.5278 41.3717 14.5162 36 14.5251C32.4433 14.5244 28.9421 15.408 25.8116 17.0962C22.6811 18.7844 20.0193 21.2244 18.0658 24.1966L19.4365 24.2347C21.6831 24.2347 25.1481 23.9491 25.1481 23.9491C26.3285 23.892 26.4617 25.5865 25.3004 25.7197C25.3004 25.7197 24.139 25.872 22.8254 25.9291L30.6692 49.1941L35.3717 35.1057L32.021 25.9291C31.2704 25.8877 30.5212 25.8242 29.7744 25.7388C28.6131 25.6626 28.7463 23.892 29.9077 23.9491C29.9077 23.9491 33.4489 24.2347 35.5621 24.2347C37.8087 24.2347 41.2737 23.9491 41.2737 23.9491C42.435 23.892 42.5873 25.5865 41.426 25.7197C41.426 25.7197 40.2646 25.853 38.951 25.9291ZM46.7948 54.563C50.0436 52.674 52.7398 49.9655 54.6141 46.7081C56.4883 43.4507 57.4749 39.7586 57.4754 36.0005C57.4754 32.269 56.5235 28.7659 54.8481 25.7007C55.1883 29.0729 54.6778 32.4767 53.3631 35.6007L46.7948 54.563ZM36 60.7505C29.4359 60.7505 23.1406 58.1429 18.4991 53.5014C13.8576 48.8599 11.25 42.5646 11.25 36.0005C11.25 29.4364 13.8576 23.1411 18.4991 18.4996C23.1406 13.8581 29.4359 11.2505 36 11.2505C42.5641 11.2505 48.8594 13.8581 53.5009 18.4996C58.1424 23.1411 60.75 29.4364 60.75 36.0005C60.75 42.5646 58.1424 48.8599 53.5009 53.5014C48.8594 58.1429 42.5641 60.7505 36 60.7505Z" fill="white"/>
</svg>
